REM DIRINDEX 1\2,1\3,1\4,1\5,1\6,1\7,1\8
REM DIRNAME cjc152,folder01,folder02,folder03,folder04,folder05,folder06,folder07
TITLE ""
FILE "36_Ch8_FavoriteThingstoDo_Words.mp3" MP3
  TRACK 01 AUDIO
    TITLE "0:"
    INDEX 01 00:00:00
  TRACK 02 AUDIO
    TITLE "8:cjc152_1973"
    INDEX 01 00:01:05
  TRACK 03 AUDIO
    TITLE "0:"
    INDEX 01 00:04:15
  TRACK 04 AUDIO
    TITLE "8:cjc152_1974"
    INDEX 01 00:05:14
  TRACK 05 AUDIO
    TITLE "0:"
    INDEX 01 00:06:26
  TRACK 06 AUDIO
    TITLE "2:cjc152_1975"
    INDEX 01 00:07:17
  TRACK 07 AUDIO
    TITLE "0:"
    INDEX 01 00:08:19
  TRACK 08 AUDIO
    TITLE "2:cjc152_1976"
    INDEX 01 00:08:48
  TRACK 09 AUDIO
    TITLE "0:"
    INDEX 01 00:09:53
  TRACK 10 AUDIO
    TITLE "2:cjc152_1977"
    INDEX 01 00:10:43
  TRACK 11 AUDIO
    TITLE "0:"
    INDEX 01 00:12:14
  TRACK 12 AUDIO
    TITLE "2:cjc152_1978"
    INDEX 01 00:12:46
  TRACK 13 AUDIO
    TITLE "0:"
    INDEX 01 00:13:73
  TRACK 14 AUDIO
    TITLE "2:cjc152_1979"
    INDEX 01 00:14:64
  TRACK 15 AUDIO
    TITLE "0:"
    INDEX 01 00:16:18
  TRACK 16 AUDIO
    TITLE "2:cjc152_1980"
    INDEX 01 00:16:48
  TRACK 17 AUDIO
    TITLE "0:"
    INDEX 01 00:18:33
  TRACK 18 AUDIO
    TITLE "2:cjc152_1981"
    INDEX 01 00:19:26
  TRACK 19 AUDIO
    TITLE "0:"
    INDEX 01 00:20:32
  TRACK 20 AUDIO
    TITLE "2:cjc152_1982"
    INDEX 01 00:20:59
  TRACK 21 AUDIO
    TITLE "0:"
    INDEX 01 00:21:62
  TRACK 22 AUDIO
    TITLE "2:cjc152_1983"
    INDEX 01 00:22:56
  TRACK 23 AUDIO
    TITLE "0:"
    INDEX 01 00:24:02
  TRACK 24 AUDIO
    TITLE "2:cjc152_1984"
    INDEX 01 00:24:31
  TRACK 25 AUDIO
    TITLE "0:"
    INDEX 01 00:25:35
  TRACK 26 AUDIO
    TITLE "2:cjc152_1985"
    INDEX 01 00:26:38
  TRACK 27 AUDIO
    TITLE "0:"
    INDEX 01 00:27:67
  TRACK 28 AUDIO
    TITLE "2:cjc152_1986"
    INDEX 01 00:28:23
  TRACK 29 AUDIO
    TITLE "0:"
    INDEX 01 00:29:42
  TRACK 30 AUDIO
    TITLE "2:cjc152_1987"
    INDEX 01 00:30:36
  TRACK 31 AUDIO
    TITLE "0:"
    INDEX 01 00:32:03
  TRACK 32 AUDIO
    TITLE "2:cjc152_1988"
    INDEX 01 00:32:35
  TRACK 33 AUDIO
    TITLE "0:"
    INDEX 01 00:34:08
  TRACK 34 AUDIO
    TITLE "2:cjc152_1989"
    INDEX 01 00:34:73
  TRACK 35 AUDIO
    TITLE "0:"
    INDEX 01 00:36:03
  TRACK 36 AUDIO
    TITLE "2:cjc152_1990"
    INDEX 01 00:36:33
  TRACK 37 AUDIO
    TITLE "0:"
    INDEX 01 00:37:34
  TRACK 38 AUDIO
    TITLE "2:cjc152_1991"
    INDEX 01 00:38:26
  TRACK 39 AUDIO
    TITLE "0:"
    INDEX 01 00:39:52
  TRACK 40 AUDIO
    TITLE "2:cjc152_1992"
    INDEX 01 00:40:09
  TRACK 41 AUDIO
    TITLE "0:"
    INDEX 01 00:41:24
  TRACK 42 AUDIO
    TITLE "2:cjc152_1993"
    INDEX 01 00:42:18
  TRACK 43 AUDIO
    TITLE "0:"
    INDEX 01 00:43:50
  TRACK 44 AUDIO
    TITLE "2:cjc152_1994"
    INDEX 01 00:44:05
  TRACK 45 AUDIO
    TITLE "0:"
    INDEX 01 00:45:61
  TRACK 46 AUDIO
    TITLE "2:cjc152_1995"
    INDEX 01 00:46:53
  TRACK 47 AUDIO
    TITLE "0:"
    INDEX 01 00:48:00
  TRACK 48 AUDIO
    TITLE "2:cjc152_1996"
    INDEX 01 00:48:32
  TRACK 49 AUDIO
    TITLE "0:"
    INDEX 01 00:49:39
  TRACK 50 AUDIO
    TITLE "2:cjc152_1997"
    INDEX 01 00:50:29
  TRACK 51 AUDIO
    TITLE "0:"
    INDEX 01 00:51:44
  TRACK 52 AUDIO
    TITLE "2:cjc152_1998"
    INDEX 01 00:51:73
  TRACK 53 AUDIO
    TITLE "0:"
    INDEX 01 00:53:09
  TRACK 54 AUDIO
    TITLE "2:cjc152_1999"
    INDEX 01 00:54:03
  TRACK 55 AUDIO
    TITLE "0:"
    INDEX 01 00:55:10
  TRACK 56 AUDIO
    TITLE "2:cjc152_2000"
    INDEX 01 00:55:42
  TRACK 57 AUDIO
    TITLE "0:"
    INDEX 01 00:56:61
  TRACK 58 AUDIO
    TITLE "2:cjc152_2001"
    INDEX 01 00:57:54
  TRACK 59 AUDIO
    TITLE "0:"
    INDEX 01 00:58:69
  TRACK 60 AUDIO
    TITLE "2:cjc152_2002"
    INDEX 01 00:59:26
  TRACK 61 AUDIO
    TITLE "0:"
    INDEX 01 01:00:59
  TRACK 62 AUDIO
    TITLE "2:cjc152_2003"
    INDEX 01 01:01:50
  TRACK 63 AUDIO
    TITLE "0:"
    INDEX 01 01:02:59
  TRACK 64 AUDIO
    TITLE "2:cjc152_2004"
    INDEX 01 01:03:14
  TRACK 65 AUDIO
    TITLE "0:"
    INDEX 01 01:04:31
  TRACK 66 AUDIO
    TITLE "2:cjc152_2005"
    INDEX 01 01:05:21
  TRACK 67 AUDIO
    TITLE "0:"
    INDEX 01 01:06:42
  TRACK 68 AUDIO
    TITLE "2:cjc152_2006"
    INDEX 01 01:06:69
  TRACK 69 AUDIO
    TITLE "0:"
    INDEX 01 01:08:40
  TRACK 70 AUDIO
    TITLE "2:cjc152_2007"
    INDEX 01 01:09:32
  TRACK 71 AUDIO
    TITLE "0:"
    INDEX 01 01:10:37
  TRACK 72 AUDIO
    TITLE "2:cjc152_2008"
    INDEX 01 01:10:67
  TRACK 73 AUDIO
    TITLE "0:"
    INDEX 01 01:12:03
  TRACK 74 AUDIO
    TITLE "2:cjc152_2009"
    INDEX 01 01:12:70
  TRACK 75 AUDIO
    TITLE "0:"
    INDEX 01 01:14:04
  TRACK 76 AUDIO
    TITLE "2:cjc152_2010"
    INDEX 01 01:14:35
  TRACK 77 AUDIO
    TITLE "0:"
    INDEX 01 01:16:16
  TRACK 78 AUDIO
    TITLE "2:cjc152_2011"
    INDEX 01 01:17:08
  TRACK 79 AUDIO
    TITLE "0:"
    INDEX 01 01:18:27
  TRACK 80 AUDIO
    TITLE "2:cjc152_2012"
    INDEX 01 01:18:56
  TRACK 81 AUDIO
    TITLE "0:"
    INDEX 01 01:20:28
  TRACK 82 AUDIO
    TITLE "2:cjc152_2013"
    INDEX 01 01:21:20
  TRACK 83 AUDIO
    TITLE "0:"
    INDEX 01 01:22:27
  TRACK 84 AUDIO
    TITLE "2:cjc152_2014"
    INDEX 01 01:22:58
  TRACK 85 AUDIO
    TITLE "0:"
    INDEX 01 01:23:65
  TRACK 86 AUDIO
    TITLE "2:cjc152_2015"
    INDEX 01 01:24:53
  TRACK 87 AUDIO
    TITLE "0:"
    INDEX 01 01:26:17
  TRACK 88 AUDIO
    TITLE "2:cjc152_2016"
    INDEX 01 01:26:48
  TRACK 89 AUDIO
    TITLE "0:"
    INDEX 01 01:27:73
  TRACK 90 AUDIO
    TITLE "2:cjc152_2017"
    INDEX 01 01:28:65
  TRACK 91 AUDIO
    TITLE "0:"
    INDEX 01 01:30:13
  TRACK 92 AUDIO
    TITLE "2:cjc152_2018"
    INDEX 01 01:30:36
  TRACK 93 AUDIO
    TITLE "0:"
    INDEX 01 01:31:43
